<svg viewBox="0 0 236 234" fill="none" xmlns="http://www.w3.org/2000/svg">
<rect x="0.5" y="69.4609" width="226.044" height="151.244" transform="rotate(-3.16129 0.5 69.4609)" fill="#C4F2E4"/>
<path d="M235.501 94.8856L23.3203 94.8848L23.3204 80.2177C23.3204 76.6167 25.1102 73.2512 28.0959 71.2381L123.236 7.0898C129.545 2.8356 137.845 2.99541 143.986 7.48933L231.067 71.2138C233.854 73.2534 235.501 76.5 235.501 79.9537L235.501 94.8856Z" fill="#17C881"/>
<rect x="23.3203" y="94.7266" width="212.181" height="138.561" fill="#0A8856"/>
<rect x="45.0586" y="86.8359" width="174.785" height="75.36" transform="rotate(2.58681 45.0586 86.8359)" fill="#FCFCFC"/>
<path d="M23.3203 94.7266L76.3656 159.296L129.411 159.296L182.456 159.296L235.501 94.7258L235.502 233.286L23.3208 233.287L23.3203 94.7266Z" fill="#17C881"/>
</svg>
