<svg viewBox="0 0 263 285" fill="none" xmlns="http://www.w3.org/2000/svg">
<path d="M200.478 14.3555C224.934 18.6296 243.404 28.7284 255.888 44.6518C268.648 60.3825 273.004 79.8276 268.957 102.987C264.95 125.913 254.476 142.164 237.536 151.739C221.288 160.72 201.547 163.409 178.315 159.804C176.738 159.56 175.223 160.56 174.867 162.116L170.006 183.338C169.649 184.893 168.137 185.898 166.565 185.623L128.854 179.032C127.255 178.753 126.169 177.254 126.401 175.648L134.205 121.627C134.446 119.953 136.024 118.81 137.69 119.101L150.519 121.343C170.977 124.919 187.203 124.982 199.195 121.533C211.187 118.084 218.431 109.224 220.925 94.9543C222.724 84.6611 221.098 75.9391 216.047 68.7882C211.231 61.6785 203.65 57.2195 193.303 55.4112C182.486 53.5207 173.51 54.9654 166.374 59.7453C160.147 64.0951 155.997 70.6723 153.924 79.4769C153.545 81.0896 152.001 82.1852 150.369 81.9L109.671 74.7872C108.058 74.5053 106.963 72.98 107.27 71.3714C109.76 58.3064 114.877 47.0605 122.619 37.6335C130.931 27.5142 141.753 20.365 155.084 16.1858C168.651 12.0476 183.783 11.4375 200.478 14.3555ZM132.843 266.157C123.908 264.596 116.971 260.611 112.032 254.203C107.37 247.602 105.754 240.208 107.185 232.02C108.616 223.832 112.624 217.541 119.208 213.147C126.068 208.56 133.965 207.047 142.901 208.609C151.602 210.13 158.283 214.19 162.946 220.791C167.649 227.158 169.285 234.435 167.854 242.623C166.423 250.811 162.395 257.219 155.77 261.847C149.186 266.241 141.544 267.678 132.843 266.157Z" fill="#73DB79"/>
<path d="M54.9366 92.7198C71.4558 90.3888 85.3542 93.0208 96.632 100.616C108.046 108.03 114.857 119.559 117.065 135.203C119.25 150.689 115.919 163.246 107.071 172.875C98.7122 181.801 86.9561 187.556 71.8028 190.14C70.2295 190.408 69.0981 191.824 69.2384 193.414L70.3601 206.127C70.5004 207.717 69.3713 209.138 67.7909 209.361L44.1888 212.692C42.5824 212.918 41.0868 211.827 40.8128 210.228L34.9496 176.018C34.6639 174.351 35.8124 172.777 37.4874 172.541L45.1492 171.459C58.9682 169.509 69.3539 166.191 76.3064 161.503C83.259 156.815 86.0552 149.651 84.6951 140.012C83.714 133.06 80.8687 127.82 76.1591 124.295C71.6084 120.747 65.8387 119.466 58.8498 120.452C51.5432 121.483 46.1038 124.265 42.5314 128.798C39.6195 132.646 38.3066 137.383 38.5926 143.008C38.6768 144.662 37.5528 146.181 35.9122 146.413L10.3549 150.019C8.73333 150.248 7.21933 149.134 7.04143 147.506C6.1122 139.003 7.09235 131.074 9.98189 123.721C13.2002 115.531 18.6382 108.72 26.2957 103.288C34.1121 97.834 43.6591 94.3111 54.9366 92.7198ZM63.8321 267.697C57.7963 268.549 52.5364 267.438 48.0526 264.363C43.7054 261.109 41.1416 256.716 40.3611 251.186C39.5807 245.655 40.8402 240.804 44.1394 236.631C47.5753 232.279 52.3111 229.676 58.3469 228.825C64.224 227.995 69.3361 229.208 73.6833 232.463C78.0083 235.559 80.561 239.873 81.3414 245.403C82.1218 250.934 80.8735 255.864 77.5965 260.195C74.2973 264.367 69.7091 266.868 63.8321 267.697Z" fill="#C4F2E4"/>
</svg>
