<svg viewBox="0 0 419 261" fill="none" xmlns="http://www.w3.org/2000/svg">
<path d="M323.943 47.0117C375.921 47.0119 418.057 89.1483 418.057 141.126C418.057 182.05 391.936 216.872 355.458 229.832V260.847L301.259 235.24H227.783C175.805 235.24 133.669 193.104 133.669 141.126C133.669 89.1482 175.805 47.0117 227.783 47.0117H323.943Z" fill="#94EAFF"/>
<path d="M80.3105 0.457031C36.404 0.457031 0.810547 36.0504 0.810547 79.957C0.810593 110.682 18.2408 137.334 43.752 150.569V178.904L80.9346 159.457H98.5264C142.433 159.457 178.026 123.864 178.026 79.957C178.026 36.0504 142.433 0.457031 98.5264 0.457031H80.3105Z" fill="white"/>
<circle cx="53.1055" cy="80.0964" r="12.4207" fill="#94EAFF"/>
<circle cx="90.3674" cy="80.0964" r="12.4207" fill="#94EAFF"/>
<circle cx="127.629" cy="80.0964" r="12.4207" fill="#94EAFF"/>
</svg>
