<svg viewBox="0 0 75 20" fill="none" xmlns="http://www.w3.org/2000/svg">
<path d="M33.75 3H35.25V16.71H33.75V3ZM31.8 8.355H34.275V9.615H31.8V8.355ZM30.735 3.27H32.205V16.065H30.735V3.27ZM24 4.515H29.295V13.155H24V4.515ZM27.84 5.745H25.47V11.925H27.84V5.745ZM40.4538 3.465C41.1438 3.465 41.7588 3.595 42.2988 3.855C42.8388 4.115 43.2638 4.48 43.5738 4.95C43.8838 5.41 44.0388 5.945 44.0388 6.555C44.0388 7.155 43.8838 7.685 43.5738 8.145C43.2638 8.605 42.8388 8.965 42.2988 9.225C41.7588 9.485 41.1438 9.615 40.4538 9.615C39.7638 9.615 39.1488 9.485 38.6088 9.225C38.0688 8.965 37.6388 8.605 37.3188 8.145C37.0088 7.685 36.8538 7.155 36.8538 6.555C36.8538 5.945 37.0088 5.41 37.3188 4.95C37.6388 4.48 38.0688 4.115 38.6088 3.855C39.1488 3.595 39.7638 3.465 40.4538 3.465ZM40.4538 4.74C40.0538 4.74 39.6988 4.815 39.3888 4.965C39.0788 5.115 38.8338 5.325 38.6538 5.595C38.4738 5.865 38.3838 6.18 38.3838 6.54C38.3838 6.91 38.4738 7.23 38.6538 7.5C38.8338 7.77 39.0788 7.98 39.3888 8.13C39.6988 8.27 40.0538 8.34 40.4538 8.34C40.8538 8.34 41.2088 8.27 41.5188 8.13C41.8288 7.98 42.0738 7.77 42.2538 7.5C42.4338 7.23 42.5238 6.91 42.5238 6.54C42.5238 6.18 42.4338 5.865 42.2538 5.595C42.0738 5.325 41.8238 5.115 41.5038 4.965C41.1938 4.815 40.8438 4.74 40.4538 4.74ZM46.3188 3.015H47.8938V9.96H46.3188V3.015ZM38.9088 10.575H47.8938V14.1H40.4838V15.975H38.9388V12.945H46.3488V11.805H38.9088V10.575ZM38.9388 15.315H48.3138V16.545H38.9388V15.315ZM50.0977 4.515H55.3927V13.155H50.0977V4.515ZM53.9377 5.745H51.5677V11.925H53.9377V5.745ZM59.8477 3H61.3477V16.71H59.8477V3ZM54.6127 8.085H57.7327V9.375H54.6127V8.085ZM57.1027 3.27H58.5727V16.065H57.1027V3.27ZM66.5515 3.465C67.2415 3.465 67.8565 3.595 68.3965 3.855C68.9365 4.115 69.3615 4.48 69.6715 4.95C69.9815 5.41 70.1365 5.945 70.1365 6.555C70.1365 7.155 69.9815 7.685 69.6715 8.145C69.3615 8.605 68.9365 8.965 68.3965 9.225C67.8565 9.485 67.2415 9.615 66.5515 9.615C65.8615 9.615 65.2465 9.485 64.7065 9.225C64.1665 8.965 63.7365 8.605 63.4165 8.145C63.1065 7.685 62.9515 7.155 62.9515 6.555C62.9515 5.945 63.1065 5.41 63.4165 4.95C63.7365 4.48 64.1665 4.115 64.7065 3.855C65.2465 3.595 65.8615 3.465 66.5515 3.465ZM66.5515 4.74C66.1515 4.74 65.7965 4.815 65.4865 4.965C65.1765 5.115 64.9315 5.325 64.7515 5.595C64.5715 5.865 64.4815 6.18 64.4815 6.54C64.4815 6.91 64.5715 7.23 64.7515 7.5C64.9315 7.77 65.1765 7.98 65.4865 8.13C65.7965 8.27 66.1515 8.34 66.5515 8.34C66.9515 8.34 67.3065 8.27 67.6165 8.13C67.9265 7.98 68.1715 7.77 68.3515 7.5C68.5315 7.23 68.6215 6.91 68.6215 6.54C68.6215 6.18 68.5315 5.865 68.3515 5.595C68.1715 5.325 67.9215 5.115 67.6015 4.965C67.2915 4.815 66.9415 4.74 66.5515 4.74ZM72.4165 3.015H73.9915V9.96H72.4165V3.015ZM65.0065 10.575H73.9915V14.1H66.5815V15.975H65.0365V12.945H72.4465V11.805H65.0065V10.575ZM65.0365 15.315H74.4115V16.545H65.0365V15.315Z" fill="#00A86B"/>
<path d="M19 4H17V13H4V15C4 15.55 4.45 16 5 16H16L20 20V5C20 4.45 19.55 4 19 4ZM15 10V1C15 0.45 14.55 0 14 0H1C0.45 0 0 0.45 0 1V15L4 11H14C14.55 11 15 10.55 15 10Z" fill="#00A86B"/>
</svg>
