<svg viewBox="0 0 178 237" fill="none" xmlns="http://www.w3.org/2000/svg">
<path d="M109.936 236.285L93.5117 154.812H116.054L137.12 207.775C171.065 196.637 178.226 222.141 177.563 236.285H109.936Z" fill="#17C881"/>
<path d="M68.6707 236.283L75.3008 158.049H52.7586L41.4875 207.774C7.5416 196.636 0.381134 222.139 1.04414 236.283H68.6707Z" fill="#17C881"/>
<path d="M166.989 166.007H5.93359C3.17216 166.007 0.933594 163.768 0.933594 161.007V51.9696L22.2239 38.9102H150.37L171.989 51.9696V161.007C171.989 163.768 169.75 166.007 166.989 166.007Z" fill="#17C881"/>
<path d="M171.734 51.7852H0.933594L87.3629 104.725L171.734 51.7852Z" fill="#00A86B"/>
<path d="M0.935318 51.7851L171.734 51.7852L87.8969 1.81851C86.3033 0.868771 84.3149 0.879368 82.7316 1.84603L0.935318 51.7851Z" fill="#94EAFF"/>
<path d="M11.8906 28.0488C11.8906 27.4965 12.3383 27.0488 12.8906 27.0488H150.192C150.744 27.0488 151.192 27.4965 151.192 28.0488L151.192 64.7679L116.094 88.1539L45.3555 80.808L11.8906 58.498V28.0488Z" fill="#F6F6F6"/>
<path d="M96.3987 65.2324C109.947 65.2324 120.93 76.5124 120.93 90.4268C120.93 104.341 109.947 115.621 96.3987 115.621C89.2597 115.621 82.8337 112.488 78.3509 107.489C78.0762 107.183 77.5923 107.183 77.3176 107.489C72.8347 112.488 66.4088 115.621 59.2698 115.621C45.7216 115.621 34.7386 104.341 34.7385 90.4268C34.7385 76.5124 45.7216 65.2325 59.2698 65.2324C66.4083 65.2324 72.8347 68.364 77.3176 73.3625C77.5923 73.6688 78.0762 73.6688 78.3508 73.3625C82.8337 68.364 89.2601 65.2324 96.3987 65.2324Z" fill="white"/>
<ellipse cx="59.271" cy="90.4244" rx="13.9231" ry="14.2994" fill="#222222"/>
<ellipse cx="96.3999" cy="90.4244" rx="13.9231" ry="14.2994" fill="#222222"/>
<path d="M52.9055 84.5896L46.0154 84.5896L49.4604 78.6226L52.9055 84.5896Z" fill="white"/>
<path d="M90.0305 84.5896L83.1404 84.5896L86.5854 78.6226L90.0305 84.5896Z" fill="white"/>
<path d="M63.7656 123.148C69.9864 129.847 87.6088 135.368 100.54 119.055" stroke="#3D3D3D" stroke-width="2" stroke-linecap="round" stroke-linejoin="round"/>
</svg>
