<svg xmlns="http://www.w3.org/2000/svg" viewBox="0 0 100.18607 22.750199"><g fill="#020202"><path d="M10.145 2.19v15.817H0V2.19h3.197V6.28h3.664V2.19ZM6.861 9.865H3.197v4.832h3.664Zm11.227-2.368h-2.403V0H12.35v22.667h3.391L15.685 11h2.403v11.668h3.083V0h-3.083M27.005 4.556v4.342h8.416v2.796H23.63V1.444H34.86v3.112Zm-1.861 12.113h12.348v-1.225H25.144v-2.158h16.05v5.786H28.523v1.206h12.67v2.461h-16.02Zm18.598-8.466h-2.468v4.181h-3.38V.096h3.38v4.705h2.468M55.607 7.47v9.951c-1.09.426-5.868 1.977-10.668 1.605v2.596s7.76.227 10.706-2.515v3.257h2.811V7.471Zm-7.362.861c-1.54 0-2.675 1.176-2.675 2.631v2.807c0 1.446 1.293 2.43 2.675 2.43h2.306c1.75 0 2.829-1.021 2.829-2.62v-2.617c0-1.455-1.023-2.63-2.613-2.63zm.866 2.042h.824c.635 0 1.116.48 1.116 1.095v1.594c0 .633-.481 1.111-1.116 1.111h-.824c-.633 0-1.212-.478-1.212-1.11v-1.595c0-.616.579-1.095 1.212-1.095zM72.413 12.555H61.028V1.5h11.385zm-9.379 10.178V15.14h3.353v4.384h12.686v3.21zm1.238-13.256h4.901V4.623h-4.901zm11.047 5.194H78.8V.102h-3.48zM81.99.666v2.75h5.483c-.291 1.034-2.694 2.875-5.366 3.663v2.306c2.5-.567 6.392-2.042 8.368-4.324 1.917 2.073 4.47 3.567 8.33 3.975V6.948c-2-.547-4.143-1.493-5.536-3.532h5.655V.666Zm6.644 7.393v2.32h-7.902v3.06h19.454v-3.06h-7.85V8.06Zm-6.755 6.86v3.125h13.844s.136 2.285-1.141 4.706h3.343s1.115-1.982 1.115-4.679V14.92z"/></g></svg>
