<svg viewBox="0 0 271 228" fill="none" xmlns="http://www.w3.org/2000/svg">
<path d="M147.99 16.8273L235.114 225.891L10.0306 196.453L147.99 16.8273Z" fill="#FECFA0"/>
<path d="M136.386 114.437C133.874 114.109 131.891 113.076 130.437 111.34C129.058 109.546 128.52 107.492 128.823 105.178C129.125 102.865 130.169 101.052 131.955 99.7386C133.815 98.3683 136.001 97.8474 138.513 98.1759C140.959 98.4958 142.871 99.5527 144.25 101.347C145.638 103.075 146.18 105.095 145.878 107.409C145.575 109.723 144.527 111.569 142.733 112.948C140.947 114.261 138.832 114.757 136.386 114.437ZM142.188 141.014L126.943 167.36L118.019 166.193L128.108 139.173L142.188 141.014Z" fill="white" fill-opacity="0.9"/>
</svg>
