<svg viewBox="0 0 322 290" fill="none" xmlns="http://www.w3.org/2000/svg">
<path d="M125.606 57.2122C146.731 32.3257 185.577 33.7707 204.795 60.1579C212.417 70.6235 223.773 77.7557 236.511 80.0765C268.626 85.928 286.797 120.292 273.554 150.129C268.302 161.962 267.803 175.363 272.162 187.555C283.152 218.293 262.478 251.212 230.017 254.661C217.142 256.029 205.287 262.298 196.909 272.169C175.784 297.055 136.938 295.61 117.72 269.223C110.098 258.757 98.7417 251.625 86.0043 249.304C53.8894 243.453 35.7179 209.089 48.961 179.252C54.2134 167.418 54.7119 154.017 50.3531 141.826C39.3633 111.088 60.0376 78.1691 92.4984 74.7196C105.373 73.3515 117.228 67.0827 125.606 57.2122Z" fill="#94EAFF"/>
<path d="M203.328 148.61C200.624 150.341 198.878 152.245 198.09 154.321C197.361 156.365 197.573 158.478 198.727 160.658C200.004 163.075 202.139 166.47 205.132 170.846C208.651 176.074 211.096 179.985 212.467 182.578C214.898 187.175 215.398 191.472 213.968 195.471C212.628 199.498 209.69 202.711 205.152 205.111L199.052 208.336L193.489 197.816L197.202 195.853C199.088 194.856 200.255 193.711 200.702 192.418C201.15 191.126 200.891 189.566 199.925 187.739C199.083 186.148 197.118 183.002 194.029 178.301C193.596 177.625 192.545 175.993 190.876 173.407C189.175 170.762 187.795 168.437 186.735 166.434C185.053 163.251 184.448 160.253 184.92 157.439C185.362 154.566 186.973 151.979 189.754 149.679L189.66 149.503C186.225 150.565 183.196 150.47 180.573 149.217C177.95 147.965 175.812 145.777 174.161 142.654C173.039 140.532 171.879 138.053 170.681 135.218C169.452 132.323 168.711 130.566 168.459 129.945C166.312 124.745 164.803 121.32 163.93 119.67C162.092 116.193 159.345 115.421 155.691 117.353L151.978 119.316L146.462 108.885L152.562 105.659C157.1 103.26 161.41 102.64 165.492 103.799C169.602 104.869 172.873 107.702 175.303 112.299C176.644 114.833 178.484 119.026 180.824 124.877C182.755 129.813 184.375 133.519 185.684 135.994C186.837 138.175 188.464 139.539 190.564 140.088C192.723 140.606 195.279 140.234 198.233 138.974L203.328 148.61Z" fill="white" fill-opacity="0.9"/>
<path d="M119.192 180.77C121.897 179.039 123.613 177.15 124.342 175.106C125.13 173.03 124.947 170.902 123.794 168.722C122.485 166.246 120.334 162.821 117.342 158.446C113.823 153.218 111.394 149.336 110.054 146.802C107.623 142.205 107.093 137.923 108.464 133.955C109.863 129.898 112.831 126.669 117.369 124.269L123.469 121.044L128.985 131.475L125.272 133.438C121.618 135.371 120.71 138.075 122.549 141.552C123.421 143.203 125.402 146.378 128.492 151.079C128.862 151.638 129.898 153.239 131.598 155.884C133.267 158.471 134.663 160.825 135.785 162.946C137.437 166.07 138.042 169.068 137.6 171.941C137.159 174.814 135.532 177.371 132.72 179.612L132.814 179.789C136.28 178.786 139.325 178.91 141.948 180.162C144.54 181.356 146.677 183.544 148.36 186.726C149.419 188.73 150.564 191.179 151.793 194.074C152.99 196.909 153.747 198.696 154.062 199.435C156.208 204.635 157.702 208.03 158.544 209.621C159.51 211.448 160.653 212.541 161.973 212.898C163.293 213.256 164.897 212.936 166.782 211.939L170.495 209.975L176.058 220.495L169.958 223.721C165.42 226.12 161.081 226.756 156.94 225.628C152.889 224.527 149.648 221.678 147.217 217.081C145.846 214.488 143.99 210.266 141.65 204.414C139.718 199.478 138.114 195.802 136.836 193.386C135.683 191.205 134.027 189.856 131.868 189.339C129.768 188.79 127.241 189.146 124.288 190.406L119.192 180.77Z" fill="white" fill-opacity="0.9"/>
</svg>
