<svg viewBox="0 0 239 239" fill="none" xmlns="http://www.w3.org/2000/svg">
<circle cx="119.219" cy="119.891" r="95" transform="rotate(17.3328 119.219 119.891)" fill="#98AAFE"/>
<path d="M139.511 80.7083C146.893 83.0122 152.862 86.3765 157.417 90.8013C161.973 95.226 164.908 100.367 166.222 106.225C167.601 112.102 167.277 118.287 165.251 124.778C163.622 129.996 161.16 134.64 157.865 138.71C154.633 142.8 150.852 145.74 146.522 147.531C142.191 149.322 137.672 149.483 132.962 148.013C129.653 146.981 127.189 145.478 125.569 143.506C123.97 141.471 123.281 139.091 123.503 136.366C120.882 138.272 117.88 139.5 114.496 140.05C111.132 140.537 107.827 140.274 104.581 139.261C99.7445 137.751 96.4048 135.138 94.5621 131.42C92.7392 127.638 92.6123 123.234 94.1814 118.206C95.671 113.433 98.0477 109.286 101.312 105.766C104.575 102.245 108.345 99.7896 112.619 98.4C116.914 96.9468 121.257 96.9054 125.648 98.2759C131.121 99.9839 134.28 103.065 135.125 107.519L137.533 102.823L148.702 106.309L136.171 130.683C135.603 131.832 135.16 132.916 134.842 133.934C134.365 135.462 134.326 136.706 134.724 137.669C135.122 138.631 136.085 139.35 137.612 139.827C139.903 140.542 142.15 140.056 144.353 138.369C146.619 136.702 148.64 134.365 150.417 131.357C152.257 128.37 153.684 125.253 154.697 122.008C157.1 114.307 156.602 107.622 153.204 101.952C149.825 96.2188 143.84 92.0113 135.249 89.33C127.931 87.046 120.756 86.7623 113.725 88.479C106.714 90.132 100.569 93.4869 95.2897 98.5436C90.0936 103.557 86.3336 109.786 84.0098 117.232C81.547 125.123 81.9731 131.926 85.2881 137.639C88.6667 143.373 94.6516 147.58 103.243 150.262C109.416 152.188 115.205 152.773 120.609 152.015L119.777 161.393C112.937 162.052 105.826 161.229 98.4439 158.925C91.3163 156.701 85.5067 153.386 81.015 148.981C76.5035 144.64 73.5586 139.531 72.1804 133.653C70.8022 127.776 71.1359 121.56 73.1816 115.005C76.1013 105.65 80.9165 97.8291 87.6274 91.543C94.4018 85.2767 102.324 81.1496 111.395 79.1617C120.53 77.1937 129.902 77.7092 139.511 80.7083ZM111.88 130.644C114.171 131.359 116.479 131.346 118.806 130.605C121.132 129.865 123.184 128.55 124.961 126.66C126.801 124.79 128.119 122.582 128.913 120.037C129.747 117.364 129.691 114.972 128.744 112.86C127.796 110.749 126.018 109.286 123.409 108.472C121.054 107.737 118.757 107.823 116.519 108.731C114.3 109.575 112.324 110.983 110.591 112.957C108.921 114.95 107.689 117.219 106.894 119.765C106.08 122.374 106.071 124.641 106.867 126.565C107.663 128.49 109.334 129.849 111.88 130.644Z" fill="white" fill-opacity="0.9"/>
</svg>
