<svg viewBox="0 0 129 33" fill="none" xmlns="http://www.w3.org/2000/svg">
<rect y="1.19531" width="30" height="30" rx="1.2" fill="#17C881"/>
<mask id="mask0_951_1187" style="mask-type:alpha" maskUnits="userSpaceOnUse" x="0" y="1" width="30" height="31">
<rect y="1.19531" width="30" height="30" rx="1.2" fill="#00A86B"/>
</mask>
<g mask="url(#mask0_951_1187)">
<path d="M14.1569 15.173L0 1.19531H30L15.8431 15.173C15.3757 15.6345 14.6243 15.6345 14.1569 15.173Z" fill="#C4F2E4"/>
</g>
<path d="M59.84 26.5553H56.408V16.0673H54.416V26.2193H51.032V5.00331H54.416V12.8033H56.408V5.00331H59.84V26.5553ZM49.304 24.7553H39.512V5.79531H49.304V24.7553ZM45.992 21.7793V8.79531H42.848V21.7793H45.992ZM81.7873 15.6833H78.2113V5.00331H81.7873V15.6833ZM75.5953 10.6433C75.5953 11.2833 75.4513 11.8993 75.1632 12.4913C74.8752 13.0673 74.4432 13.5793 73.8672 14.0273C73.3073 14.4753 72.6033 14.8353 71.7552 15.1073C70.9232 15.3633 69.9552 15.4913 68.8512 15.4913C67.7312 15.4913 66.7472 15.3633 65.8992 15.1073C65.0512 14.8353 64.3392 14.4753 63.7632 14.0273C63.2032 13.5793 62.7792 13.0673 62.4912 12.4913C62.2032 11.8993 62.0592 11.2833 62.0592 10.6433V9.49131C62.0592 8.85131 62.2032 8.23531 62.4912 7.64331C62.7792 7.05131 63.2032 6.53931 63.7632 6.10731C64.3392 5.65931 65.0512 5.30731 65.8992 5.05131C66.7472 4.77931 67.7312 4.64331 68.8512 4.64331C69.9552 4.64331 70.9232 4.77931 71.7552 5.05131C72.6033 5.30731 73.3073 5.65931 73.8672 6.10731C74.4432 6.53931 74.8752 7.05131 75.1632 7.64331C75.4513 8.23531 75.5953 8.85131 75.5953 9.49131V10.6433ZM82.2433 26.5793H64.1952V20.2193H78.1872V19.1393H64.1952V16.4513H81.7873V22.7393H67.7952V23.8673H82.2433V26.5793ZM72.0192 9.73131C72.0192 9.09131 71.7632 8.55531 71.2512 8.12331C70.7392 7.67531 69.9392 7.45131 68.8512 7.45131C67.7472 7.45131 66.9392 7.67531 66.4272 8.12331C65.9152 8.55531 65.6592 9.09131 65.6592 9.73131V10.4033C65.6592 11.0433 65.9152 11.5873 66.4272 12.0353C66.9392 12.4673 67.7472 12.6833 68.8512 12.6833C69.9392 12.6833 70.7392 12.4673 71.2512 12.0353C71.7632 11.5873 72.0192 11.0433 72.0192 10.4033V9.73131ZM99.5825 26.2193H96.1985V16.3073H93.9665V24.7553H84.1745V5.79531H93.9665V13.0913H96.1985V5.00331H99.5825V26.2193ZM104.502 26.5553H101.07V5.00331H104.502V26.5553ZM90.6545 21.7793V8.79531H87.5105V21.7793H90.6545ZM126.45 15.6833H122.874V5.00331H126.45V15.6833ZM120.258 10.6433C120.258 11.2833 120.114 11.8993 119.826 12.4913C119.538 13.0673 119.106 13.5793 118.53 14.0273C117.97 14.4753 117.266 14.8353 116.418 15.1073C115.586 15.3633 114.618 15.4913 113.514 15.4913C112.394 15.4913 111.41 15.3633 110.562 15.1073C109.714 14.8353 109.002 14.4753 108.426 14.0273C107.866 13.5793 107.442 13.0673 107.154 12.4913C106.866 11.8993 106.722 11.2833 106.722 10.6433V9.49131C106.722 8.85131 106.866 8.23531 107.154 7.64331C107.442 7.05131 107.866 6.53931 108.426 6.10731C109.002 5.65931 109.714 5.30731 110.562 5.05131C111.41 4.77931 112.394 4.64331 113.514 4.64331C114.618 4.64331 115.586 4.77931 116.418 5.05131C117.266 5.30731 117.97 5.65931 118.53 6.10731C119.106 6.53931 119.538 7.05131 119.826 7.64331C120.114 8.23531 120.258 8.85131 120.258 9.49131V10.6433ZM126.906 26.5793H108.858V20.2193H122.85V19.1393H108.858V16.4513H126.45V22.7393H112.458V23.8673H126.906V26.5793ZM116.682 9.73131C116.682 9.09131 116.426 8.55531 115.914 8.12331C115.402 7.67531 114.602 7.45131 113.514 7.45131C112.41 7.45131 111.602 7.67531 111.09 8.12331C110.578 8.55531 110.322 9.09131 110.322 9.73131V10.4033C110.322 11.0433 110.578 11.5873 111.09 12.0353C111.602 12.4673 112.41 12.6833 113.514 12.6833C114.602 12.6833 115.402 12.4673 115.914 12.0353C116.426 11.5873 116.682 11.0433 116.682 10.4033V9.73131Z" fill="white"/>
</svg>
