<svg viewBox="0 0 99 32" fill="none" xmlns="http://www.w3.org/2000/svg">
<rect y="5.85449" width="20.5714" height="20.5714" fill="#17C881"/>
<path d="M10.2857 16.01L0 5.85449H20.5714L10.2857 16.01Z" fill="#C4F2E4"/>
<path d="M41.1567 6.40177H43.7692V25.4509H41.1567V6.40177ZM38.8732 13.6841H42.0412V15.8646H38.8732V13.6841ZM37.0012 6.71034H39.5521V24.6075H37.0012V6.71034ZM27.9498 8.35605H35.4584V20.6989H27.9498V8.35605ZM32.9281 10.4955H30.5007V18.5801H32.9281V10.4955ZM50.4534 6.9572C51.4408 6.9572 52.3116 7.1492 53.0659 7.5332C53.8339 7.90348 54.4374 8.41777 54.8762 9.07605C55.3288 9.72062 55.5551 10.4681 55.5551 11.3183C55.5551 12.1686 55.3288 12.9229 54.8762 13.5812C54.4374 14.2258 53.8339 14.7332 53.0659 15.1035C52.3116 15.4738 51.4408 15.6589 50.4534 15.6589C49.4934 15.6589 48.6294 15.4738 47.8614 15.1035C47.0934 14.7332 46.4831 14.2258 46.0305 13.5812C45.5916 12.9229 45.3722 12.1686 45.3722 11.3183C45.3722 10.4681 45.5916 9.71377 46.0305 9.05548C46.4831 8.3972 47.0934 7.88291 47.8614 7.51262C48.6294 7.14234 49.4934 6.9572 50.4534 6.9572ZM50.4739 9.17891C50.0076 9.17891 49.5894 9.26805 49.2191 9.44634C48.8488 9.61091 48.5539 9.85091 48.3345 10.1663C48.1288 10.4818 48.0259 10.8658 48.0259 11.3183C48.0259 11.7709 48.1288 12.1618 48.3345 12.4909C48.5539 12.8063 48.8419 13.0463 49.1985 13.2109C49.5688 13.3755 49.9939 13.4578 50.4739 13.4578C50.9402 13.4578 51.3516 13.3755 51.7082 13.2109C52.0785 13.0463 52.3665 12.8063 52.5722 12.4909C52.7916 12.1618 52.9014 11.7709 52.9014 11.3183C52.9014 10.8658 52.7916 10.4818 52.5722 10.1663C52.3665 9.85091 52.0785 9.61091 51.7082 9.44634C51.3379 9.26805 50.9265 9.17891 50.4739 9.17891ZM58.1882 6.42234H60.9242V15.9469H58.1882V6.42234ZM48.2316 16.7286H60.9242V21.9332H50.9471V24.2578H48.2522V19.9583H58.2088V18.8269H48.2316V16.7286ZM48.2522 23.1263H61.3974V25.2658H48.2522V23.1263ZM63.3295 8.35605H70.838V20.6989H63.3295V8.35605ZM68.3077 10.4955H65.8803V18.5801H68.3077V10.4955ZM76.5363 6.40177H79.1489V25.4509H76.5363V6.40177ZM69.4597 13.3343H73.7386V15.5355H69.4597V13.3343ZM72.6689 6.71034H75.2197V24.6075H72.6689V6.71034ZM85.833 6.9572C86.8204 6.9572 87.6913 7.1492 88.4456 7.5332C89.2136 7.90348 89.817 8.41777 90.2559 9.07605C90.7084 9.72062 90.9347 10.4681 90.9347 11.3183C90.9347 12.1686 90.7084 12.9229 90.2559 13.5812C89.817 14.2258 89.2136 14.7332 88.4456 15.1035C87.6913 15.4738 86.8204 15.6589 85.833 15.6589C84.873 15.6589 84.009 15.4738 83.241 15.1035C82.473 14.7332 81.8627 14.2258 81.4101 13.5812C80.9713 12.9229 80.7519 12.1686 80.7519 11.3183C80.7519 10.4681 80.9713 9.71377 81.4101 9.05548C81.8627 8.3972 82.473 7.88291 83.241 7.51262C84.009 7.14234 84.873 6.9572 85.833 6.9572ZM85.8536 9.17891C85.3873 9.17891 84.969 9.26805 84.5987 9.44634C84.2284 9.61091 83.9336 9.85091 83.7141 10.1663C83.5084 10.4818 83.4056 10.8658 83.4056 11.3183C83.4056 11.7709 83.5084 12.1618 83.7141 12.4909C83.9336 12.8063 84.2216 13.0463 84.5781 13.2109C84.9484 13.3755 85.3736 13.4578 85.8536 13.4578C86.3199 13.4578 86.7313 13.3755 87.0879 13.2109C87.4581 13.0463 87.7461 12.8063 87.9519 12.4909C88.1713 12.1618 88.281 11.7709 88.281 11.3183C88.281 10.8658 88.1713 10.4818 87.9519 10.1663C87.7461 9.85091 87.4581 9.61091 87.0879 9.44634C86.7176 9.26805 86.3061 9.17891 85.8536 9.17891ZM93.5679 6.42234H96.3039V15.9469H93.5679V6.42234ZM83.6113 16.7286H96.3039V21.9332H86.3267V24.2578H83.6319V19.9583H93.5884V18.8269H83.6113V16.7286ZM83.6319 23.1263H96.777V25.2658H83.6319V23.1263Z" fill="#17C881"/>
</svg>
