<svg viewBox="0 0 106 28" fill="none" xmlns="http://www.w3.org/2000/svg">
<rect y="2" width="24" height="24" rx="1.2" fill="#17C881"/>
<mask id="mask0_951_1160" style="mask-type:alpha" maskUnits="userSpaceOnUse" x="0" y="2" width="24" height="24">
<rect y="2" width="24" height="24" rx="1.2" fill="#00A86B"/>
</mask>
<g mask="url(#mask0_951_1160)">
<path d="M11.1569 13.0157L0 2H24L12.8431 13.0157C12.3757 13.4771 11.6243 13.4771 11.1569 13.0157Z" fill="#C4F2E4"/>
</g>
<path d="M47.8929 22.3H45.0329V13.56H43.3729V22.02H40.5529V4.34H43.3729V10.84H45.0329V4.34H47.8929V22.3ZM39.1129 20.8H30.9529V5H39.1129V20.8ZM36.3529 18.32V7.5H33.7329V18.32H36.3529ZM66.1822 13.24H63.2022V4.34H66.1822V13.24ZM61.0222 9.04C61.0222 9.57333 60.9022 10.0867 60.6622 10.58C60.4222 11.06 60.0622 11.4867 59.5822 11.86C59.1156 12.2333 58.5289 12.5333 57.8222 12.76C57.1289 12.9733 56.3222 13.08 55.4022 13.08C54.4689 13.08 53.6489 12.9733 52.9422 12.76C52.2356 12.5333 51.6422 12.2333 51.1622 11.86C50.6956 11.4867 50.3422 11.06 50.1022 10.58C49.8622 10.0867 49.7422 9.57333 49.7422 9.04V8.08C49.7422 7.54667 49.8622 7.03333 50.1022 6.54C50.3422 6.04667 50.6956 5.62 51.1622 5.26C51.6422 4.88667 52.2356 4.59333 52.9422 4.38C53.6489 4.15333 54.4689 4.04 55.4022 4.04C56.3222 4.04 57.1289 4.15333 57.8222 4.38C58.5289 4.59333 59.1156 4.88667 59.5822 5.26C60.0622 5.62 60.4222 6.04667 60.6622 6.54C60.9022 7.03333 61.0222 7.54667 61.0222 8.08V9.04ZM66.5622 22.32H51.5222V17.02H63.1822V16.12H51.5222V13.88H66.1822V19.12H54.5222V20.06H66.5622V22.32ZM58.0422 8.28C58.0422 7.74667 57.8289 7.3 57.4022 6.94C56.9756 6.56667 56.3089 6.38 55.4022 6.38C54.4822 6.38 53.8089 6.56667 53.3822 6.94C52.9556 7.3 52.7422 7.74667 52.7422 8.28V8.84C52.7422 9.37333 52.9556 9.82667 53.3822 10.2C53.8089 10.56 54.4822 10.74 55.4022 10.74C56.3089 10.74 56.9756 10.56 57.4022 10.2C57.8289 9.82667 58.0422 9.37333 58.0422 8.84V8.28ZM81.0116 22.02H78.1916V13.76H76.3316V20.8H68.1716V5H76.3316V11.08H78.1916V4.34H81.0116V22.02ZM85.1116 22.3H82.2516V4.34H85.1116V22.3ZM73.5716 18.32V7.5H70.9516V18.32H73.5716ZM103.401 13.24H100.421V4.34H103.401V13.24ZM98.241 9.04C98.241 9.57333 98.121 10.0867 97.881 10.58C97.641 11.06 97.281 11.4867 96.801 11.86C96.3343 12.2333 95.7477 12.5333 95.041 12.76C94.3477 12.9733 93.541 13.08 92.621 13.08C91.6877 13.08 90.8677 12.9733 90.161 12.76C89.4543 12.5333 88.861 12.2333 88.381 11.86C87.9143 11.4867 87.561 11.06 87.321 10.58C87.081 10.0867 86.961 9.57333 86.961 9.04V8.08C86.961 7.54667 87.081 7.03333 87.321 6.54C87.561 6.04667 87.9143 5.62 88.381 5.26C88.861 4.88667 89.4543 4.59333 90.161 4.38C90.8677 4.15333 91.6877 4.04 92.621 4.04C93.541 4.04 94.3477 4.15333 95.041 4.38C95.7477 4.59333 96.3343 4.88667 96.801 5.26C97.281 5.62 97.641 6.04667 97.881 6.54C98.121 7.03333 98.241 7.54667 98.241 8.08V9.04ZM103.781 22.32H88.741V17.02H100.401V16.12H88.741V13.88H103.401V19.12H91.741V20.06H103.781V22.32ZM95.261 8.28C95.261 7.74667 95.0477 7.3 94.621 6.94C94.1943 6.56667 93.5277 6.38 92.621 6.38C91.701 6.38 91.0277 6.56667 90.601 6.94C90.1743 7.3 89.961 7.74667 89.961 8.28V8.84C89.961 9.37333 90.1743 9.82667 90.601 10.2C91.0277 10.56 91.701 10.74 92.621 10.74C93.5277 10.74 94.1943 10.56 94.621 10.2C95.0477 9.82667 95.261 9.37333 95.261 8.84V8.28Z" fill="#17C881"/>
</svg>
