<?xml version="1.0" encoding="utf-8"?>
<!-- Generator: Adobe Illustrator 27.0.0, SVG Export Plug-In . SVG Version: 6.00 Build 0)  -->
<svg version="1.1" id="Layer_1" xmlns="http://www.w3.org/2000/svg" xmlns:xlink="http://www.w3.org/1999/xlink"
	 viewBox="0 0 512 512">
<style type="text/css">
	.st0{fill:#3ACE01;}
</style>
<g id="XMLID_1_">
	<path id="XMLID_7_" class="st0" d="M20.4,352.41h1.26h0.42h77.59c11.22,0,20.49-9.26,20.49-20.49v-1.68
		c0-11.22-9.26-20.49-20.49-20.49H42.71V179.83c0-11.22-9.26-20.49-20.49-20.49h-1.68c-11.22,0-20.49,9.26-20.49,20.49v152.1
		C-0.09,343.15,9.17,352.41,20.4,352.41z M512.05,257v-1.68c0-11.22-9.26-20.49-20.49-20.49h-57.11v-32.55h57.11
		c11.22,0,20.49-9.26,20.49-20.49v-1.68c0-11.22-9.26-20.49-20.49-20.49h-77.59h-0.42h-1.26c-11.22,0-20.49,9.26-20.49,20.49v152.1
		c0,11.22,9.26,20.49,20.49,20.49h1.26h0.42h77.59c11.22,0,20.49-9.26,20.49-20.49v-1.68c0-11.22-9.26-20.49-20.49-20.49h-57.11
		v-32.55h57.11C502.79,277.63,512.05,268.37,512.05,257z M359.53,346.38L359.53,346.38c3.65-3.79,5.89-8.84,5.89-14.45V179.69
		c0-11.22-9.26-20.49-20.49-20.49h-1.68c-11.22,0-20.49,9.26-20.49,20.49v89.38l-74.08-99.48c-3.51-6.17-10.24-10.38-17.82-10.38
		h-1.68c-11.22,0-20.49,9.26-20.49,20.49v152.1c0,11.22,9.26,20.49,20.49,20.49h1.68c11.22,0,20.49-9.26,20.49-20.49v-90.92
		L326,342.87c0.42,0.7,0.98,1.4,1.54,2.1l0,0c2.1,2.81,4.91,4.77,8,5.89c2.39,0.98,5.05,1.54,7.72,1.54h1.68
		c3.51,0,6.73-0.84,9.54-2.39C356.58,349.05,358.27,347.78,359.53,346.38z M157.34,352.41h1.68c11.22,0,20.49-9.26,20.49-20.49
		V179.69c0-11.22-9.26-20.49-20.49-20.49h-1.68c-11.22,0-20.49,9.26-20.49,20.49v152.1C136.86,343.15,146.12,352.41,157.34,352.41z"
		/>
</g>
</svg>
