<svg viewBox="0 0 24 25" width="100%" height="100%" xmlns="http://www.w3.org/2000/svg">
<path d="M3.76768 6.54601L3.32218 6.31901L3.32218 6.31901L3.76768 6.54601ZM5.3658 19.8635L5.71935 20.2171L5.3658 19.8635ZM6.70236 18.527L6.34881 18.1734L6.34881 18.1734L6.70236 18.527ZM6.90544 18.2341V17.7341C6.70945 17.7341 6.53153 17.8486 6.45035 18.027L6.90544 18.2341ZM19.7955 18.1251L20.0225 18.5706L20.0225 18.5706L19.7955 18.1251ZM20.2325 17.6881L19.787 17.4611V17.4611L20.2325 17.6881ZM20.2325 6.54601L19.787 6.773V6.773L20.2325 6.54601ZM19.7955 6.10899L20.0225 5.66349L20.0225 5.66349L19.7955 6.10899ZM4.2047 6.10899L3.97771 5.66349L3.97771 5.66349L4.2047 6.10899ZM4.15869 7.6C4.15869 7.31172 4.15908 7.12559 4.17066 6.98392C4.18175 6.84809 4.20059 6.79773 4.21319 6.773L3.32218 6.31901C3.22578 6.5082 3.19013 6.70481 3.17398 6.90249C3.1583 7.09432 3.15869 7.32823 3.15869 7.6H4.15869ZM4.15869 13.6731V7.6H3.15869V13.6731H4.15869ZM3.15869 13.6731V16.6341H4.15869V13.6731H3.15869ZM3.15869 16.6341V18.2341H4.15869V16.6341H3.15869ZM3.15869 18.2341V19.1564H4.15869V18.2341H3.15869ZM3.15869 19.1564C3.15869 20.4928 4.7744 21.162 5.71935 20.2171L5.01224 19.51C4.69726 19.825 4.15869 19.6019 4.15869 19.1564H3.15869ZM5.71935 20.2171L7.05592 18.8805L6.34881 18.1734L5.01224 19.51L5.71935 20.2171ZM7.05592 18.8805C7.18417 18.7523 7.28682 18.6031 7.36053 18.4412L6.45035 18.027C6.42577 18.081 6.39157 18.1307 6.34881 18.1734L7.05592 18.8805ZM18.7415 17.7341H6.90544V18.7341H18.7415V17.7341ZM19.5685 17.6796C19.5438 17.6922 19.4934 17.711 19.3576 17.7221C19.2159 17.7337 19.0298 17.7341 18.7415 17.7341V18.7341C19.0133 18.7341 19.2472 18.7345 19.439 18.7188C19.6367 18.7026 19.8333 18.667 20.0225 18.5706L19.5685 17.6796ZM19.787 17.4611C19.7391 17.5552 19.6626 17.6316 19.5685 17.6796L20.0225 18.5706C20.3048 18.4268 20.5342 18.1973 20.678 17.9151L19.787 17.4611ZM19.8415 16.6341C19.8415 16.9224 19.8411 17.1085 19.8296 17.2502C19.8185 17.386 19.7996 17.4363 19.787 17.4611L20.678 17.9151C20.7744 17.7259 20.8101 17.5293 20.8262 17.3316C20.8419 17.1398 20.8415 16.9059 20.8415 16.6341H19.8415ZM19.8415 7.6V16.6341H20.8415V7.6H19.8415ZM19.787 6.773C19.7996 6.79773 19.8185 6.84809 19.8296 6.98392C19.8411 7.12559 19.8415 7.31172 19.8415 7.6H20.8415C20.8415 7.32822 20.8419 7.09432 20.8262 6.90249C20.8101 6.70481 20.7744 6.5082 20.678 6.31901L19.787 6.773ZM19.5685 6.5545C19.6626 6.60243 19.7391 6.67892 19.787 6.773L20.678 6.31902C20.5342 6.03677 20.3048 5.8073 20.0225 5.66349L19.5685 6.5545ZM18.7415 6.5C19.0298 6.5 19.2159 6.50039 19.3576 6.51196C19.4934 6.52306 19.5438 6.5419 19.5685 6.5545L20.0225 5.66349C19.8333 5.56709 19.6367 5.53144 19.439 5.51528C19.2472 5.49961 19.0133 5.5 18.7415 5.5V6.5ZM5.25869 6.5H18.7415V5.5H5.25869V6.5ZM4.4317 6.5545C4.45642 6.5419 4.50678 6.52306 4.64261 6.51196C4.78428 6.50039 4.97041 6.5 5.25869 6.5V5.5C4.98692 5.5 4.75301 5.49961 4.56118 5.51528C4.3635 5.53144 4.1669 5.56709 3.97771 5.66349L4.4317 6.5545ZM4.21319 6.773C4.26112 6.67892 4.33762 6.60243 4.4317 6.5545L3.97771 5.66349C3.69546 5.8073 3.46599 6.03677 3.32218 6.31901L4.21319 6.773Z" fill="#999999"/>
<path d="M8 10L16 10" stroke="#999999" stroke-linecap="round" stroke-linejoin="round"/>
<path d="M8 14L14 14" stroke="#999999" stroke-linecap="round" stroke-linejoin="round"/>
</svg>
