<svg width="100%" height="100%" viewBox="0 0 24 24" fill="none" xmlns="http://www.w3.org/2000/svg">
  <g clip-path="url(#clip0_145_1017)">
    <path fill-rule="evenodd" clip-rule="evenodd" d="M20.7228 4.06586C20.8635 4.20652 20.9425 4.39728 20.9425 4.59619L20.9425 11.6673C20.9425 12.0815 20.6067 12.4173 20.1925 12.4173C19.7783 12.4173 19.4425 12.0815 19.4425 11.6673L19.4425 6.40685L11.1264 14.723C10.8335 15.0159 10.3586 15.0159 10.0657 14.723C9.77284 14.4301 9.77284 13.9552 10.0657 13.6623L18.3819 5.34619L13.1214 5.34619C12.7072 5.34619 12.3714 5.01041 12.3714 4.59619C12.3714 4.18198 12.7072 3.84619 13.1214 3.84619L20.1925 3.84619C20.3914 3.84619 20.5822 3.92521 20.7228 4.06586Z" fill="currentColor"/>
    <path d="M10.8 7.2H4.80005V19.2H16.8V13.2" stroke="currentColor" stroke-width="1.8" stroke-linecap="round" stroke-linejoin="round"/>
  </g>
  <defs>
    <clipPath id="clip0_145_1017">
      <rect width="24" height="24" fill="white"/>
    </clipPath>
  </defs>
</svg>
