<svg width="100%" height="100%" viewBox="0 0 34 34" fill="none" xmlns="http://www.w3.org/2000/svg">
<rect width="34" height="34" rx="17" fill="#C4F2E4"/>
<path fill-rule="evenodd" clip-rule="evenodd" d="M22.0997 13.6C22.0997 16.4167 19.8164 18.7 16.9997 18.7C14.1831 18.7 11.8997 16.4167 11.8997 13.6C11.8997 10.7833 14.1831 8.5 16.9997 8.5C19.8164 8.5 22.0997 10.7833 22.0997 13.6ZM20.3997 13.6C20.3997 15.4778 18.8775 17 16.9997 17C15.122 17 13.5997 15.4778 13.5997 13.6C13.5997 11.7222 15.122 10.2 16.9997 10.2C18.8775 10.2 20.3997 11.7222 20.3997 13.6Z" fill="#00A86B"/>
<path d="M16.9997 21.25C11.4965 21.25 6.8076 24.5042 5.02148 29.0632C5.4566 29.4953 5.91495 29.904 6.39451 30.2872C7.72454 26.1015 11.8969 22.95 16.9997 22.95C22.1025 22.95 26.2749 26.1015 27.6049 30.2873C28.0845 29.904 28.5429 29.4953 28.978 29.0632C27.1918 24.5042 22.503 21.25 16.9997 21.25Z" fill="#00A86B"/>
</svg>
