<svg width="14" height="14" viewBox="0 0 14 14" fill="none" xmlns="http://www.w3.org/2000/svg">
<path d="M12.1566 2.68919C11.8586 2.39111 11.5049 2.15465 11.1155 1.99333C10.7262 1.832 10.3089 1.74896 9.88741 1.74896C9.46596 1.74896 9.04863 1.832 8.65928 1.99333C8.26993 2.15465 7.91618 2.39111 7.61824 2.68919L6.99991 3.30753L6.38157 2.68919C5.77975 2.08737 4.96351 1.74927 4.11241 1.74927C3.2613 1.74927 2.44506 2.08737 1.84324 2.68919C1.24142 3.29101 0.90332 4.10726 0.90332 4.95836C0.90332 5.80946 1.24142 6.62571 1.84324 7.22753L6.99991 12.3842L12.1566 7.22753C12.4547 6.92959 12.6911 6.57584 12.8524 6.18648C13.0138 5.79713 13.0968 5.37981 13.0968 4.95836C13.0968 4.53691 13.0138 4.11959 12.8524 3.73024C12.6911 3.34089 12.4547 2.98714 12.1566 2.68919Z" fill="#ED4040" stroke="#ED4040" stroke-width="1.16667" stroke-linecap="round" stroke-linejoin="round"/>
</svg>
