<svg viewBox="0 0 79 24" fill="none" xmlns="http://www.w3.org/2000/svg">
<path d="M21 7H19V16H6V18C6 18.55 6.45 19 7 19H18L22 23V8C22 7.45 21.55 7 21 7ZM17 13V4C17 3.45 16.55 3 16 3H3C2.45 3 2 3.45 2 4V18L6 14H16C16.55 14 17 13.55 17 13Z" fill="#00A86B"/>
<path d="M36.89 5.52H38.39V19.23H36.89V5.52ZM34.94 10.875H37.415V12.135H34.94V10.875ZM33.875 5.79H35.345V18.585H33.875V5.79ZM27.14 7.035H32.435V15.675H27.14V7.035ZM30.98 8.265H28.61V14.445H30.98V8.265ZM43.5938 5.985C44.2838 5.985 44.8988 6.115 45.4388 6.375C45.9788 6.635 46.4038 7 46.7138 7.47C47.0238 7.93 47.1788 8.465 47.1788 9.075C47.1788 9.675 47.0238 10.205 46.7138 10.665C46.4038 11.125 45.9788 11.485 45.4388 11.745C44.8988 12.005 44.2838 12.135 43.5938 12.135C42.9038 12.135 42.2888 12.005 41.7488 11.745C41.2088 11.485 40.7788 11.125 40.4588 10.665C40.1488 10.205 39.9938 9.675 39.9938 9.075C39.9938 8.465 40.1488 7.93 40.4588 7.47C40.7788 7 41.2088 6.635 41.7488 6.375C42.2888 6.115 42.9038 5.985 43.5938 5.985ZM43.5938 7.26C43.1938 7.26 42.8388 7.335 42.5288 7.485C42.2188 7.635 41.9738 7.845 41.7938 8.115C41.6138 8.385 41.5238 8.7 41.5238 9.06C41.5238 9.43 41.6138 9.75 41.7938 10.02C41.9738 10.29 42.2188 10.5 42.5288 10.65C42.8388 10.79 43.1938 10.86 43.5938 10.86C43.9938 10.86 44.3488 10.79 44.6588 10.65C44.9688 10.5 45.2138 10.29 45.3938 10.02C45.5738 9.75 45.6638 9.43 45.6638 9.06C45.6638 8.7 45.5738 8.385 45.3938 8.115C45.2138 7.845 44.9638 7.635 44.6438 7.485C44.3338 7.335 43.9838 7.26 43.5938 7.26ZM49.4588 5.535H51.0338V12.48H49.4588V5.535ZM42.0488 13.095H51.0338V16.62H43.6238V18.495H42.0788V15.465H49.4888V14.325H42.0488V13.095ZM42.0788 17.835H51.4538V19.065H42.0788V17.835ZM57.2427 6.12C57.9327 6.12 58.5427 6.245 59.0727 6.495C59.6127 6.735 60.0327 7.07 60.3327 7.5C60.6427 7.93 60.7977 8.43 60.7977 9C60.7977 9.56 60.6427 10.055 60.3327 10.485C60.0327 10.915 59.6127 11.255 59.0727 11.505C58.5427 11.745 57.9327 11.865 57.2427 11.865C56.5627 11.865 55.9577 11.745 55.4277 11.505C54.8977 11.255 54.4777 10.915 54.1677 10.485C53.8677 10.055 53.7177 9.56 53.7177 9C53.7177 8.43 53.8677 7.93 54.1677 7.5C54.4777 7.07 54.8977 6.735 55.4277 6.495C55.9577 6.245 56.5627 6.12 57.2427 6.12ZM57.2427 7.41C56.8527 7.41 56.5027 7.475 56.1927 7.605C55.8927 7.735 55.6527 7.92 55.4727 8.16C55.3027 8.39 55.2177 8.67 55.2177 9C55.2177 9.32 55.3027 9.6 55.4727 9.84C55.6527 10.07 55.8927 10.25 56.1927 10.38C56.5027 10.51 56.8527 10.575 57.2427 10.575C57.6427 10.575 57.9927 10.51 58.2927 10.38C58.6027 10.25 58.8427 10.07 59.0127 9.84C59.1927 9.6 59.2827 9.32 59.2827 9C59.2827 8.67 59.1927 8.39 59.0127 8.16C58.8427 7.92 58.6027 7.735 58.2927 7.605C57.9927 7.475 57.6427 7.41 57.2427 7.41ZM56.5227 13.32H58.1127V18.81H56.5227V13.32ZM62.5677 5.535H64.1277V19.245H62.5677V5.535ZM52.9827 14.16L52.7877 12.87C53.6177 12.87 54.5327 12.86 55.5327 12.84C56.5327 12.82 57.5577 12.775 58.6077 12.705C59.6677 12.635 60.6877 12.525 61.6677 12.375L61.7727 13.545C60.7727 13.735 59.7477 13.875 58.6977 13.965C57.6577 14.055 56.6477 14.11 55.6677 14.13C54.6977 14.15 53.8027 14.16 52.9827 14.16ZM71.6565 6.9H73.1865C73.1865 7.92 73.0865 8.91 72.8865 9.87C72.6965 10.82 72.3715 11.73 71.9115 12.6C71.4515 13.47 70.8065 14.285 69.9765 15.045C69.1565 15.795 68.1215 16.48 66.8715 17.1L66.0315 15.87C67.1015 15.34 67.9965 14.765 68.7165 14.145C69.4465 13.515 70.0265 12.84 70.4565 12.12C70.8865 11.39 71.1915 10.61 71.3715 9.78C71.5615 8.94 71.6565 8.045 71.6565 7.095V6.9ZM66.8115 6.9H72.4515V8.16H66.8115V6.9ZM71.5515 10.29V11.49L66.3465 11.97L66.1065 10.62L71.5515 10.29ZM75.5865 5.52H77.1615V19.23H75.5865V5.52Z" fill="#00A86B"/>
</svg>
