<svg width="100%" height="100%" viewBox="0 0 20 20" fill="none" xmlns="http://www.w3.org/2000/svg">
<path d="M11.8527 3.80627L14.3412 1.31775C14.5447 1.1143 14.8207 1 15.1085 1C15.3962 1 15.6722 1.1143 15.8757 1.31775L18.6822 4.12425C18.8857 4.32777 19 4.60376 19 4.89153C19 5.17931 18.8857 5.4553 18.6822 5.65882L16.1937 8.14733M11.8527 3.80627L1.31798 14.3409C1.11444 14.5444 1.00006 14.8204 1 15.1082V17.9147C1 18.2026 1.11434 18.4786 1.31787 18.6821C1.52139 18.8857 1.79744 19 2.08527 19H4.89177C5.17957 18.9999 5.45557 18.8856 5.65905 18.682L16.1937 8.14733M11.8527 3.80627L16.1937 8.14733" stroke="white" stroke-width="2" stroke-linecap="round" stroke-linejoin="round"/>
</svg>
